<svg width="27" height="30" viewBox="0 0 27 30" fill="none" xmlns="http://www.w3.org/2000/svg">
<path d="M26.25 27.8925V30H0V27.8925C0 27.4238 0.232502 27.1875 0.705002 27.1875H1.875V1.40625C1.875 1.01625 2.01 0.682499 2.28375 0.408749C2.5575 0.134999 2.8875 0 3.28125 0H22.9688C23.3587 0 23.6925 0.138749 23.9662 0.408749C24.24 0.682499 24.375 1.01625 24.375 1.40625V27.1875H25.545C26.0137 27.1875 26.25 27.42 26.25 27.8925ZM4.6875 27.1313H11.25V23.205C11.25 22.7363 11.4825 22.5 11.955 22.5H14.2988C14.7675 22.5 15.0038 22.7325 15.0038 23.205V27.1313H21.5663V2.8725L4.69125 2.8125V27.1275L4.6875 27.1313ZM7.5 8.67375V6.33C7.5 5.86125 7.7325 5.625 8.205 5.625H10.5488C11.0175 5.625 11.2538 5.8575 11.2538 6.33V8.67375C11.2538 9.1425 11.0213 9.37875 10.5488 9.37875H8.205C7.73625 9.37875 7.5 9.14625 7.5 8.67375ZM8.205 15.0037C7.73625 15.0037 7.5 14.7713 7.5 14.2988V11.955C7.5 11.4863 7.7325 11.25 8.205 11.25H10.5488C11.0175 11.25 11.2538 11.4825 11.2538 11.955V14.2988C11.2538 14.7675 11.0213 15.0037 10.5488 15.0037H8.205ZM11.25 19.9238C11.25 20.3925 11.0175 20.6287 10.545 20.6287H8.20125C7.7325 20.6287 7.49625 20.3963 7.49625 19.9238V17.58C7.49625 17.1113 7.72875 16.875 8.20125 16.875H10.545C11.0137 16.875 11.25 17.1075 11.25 17.58V19.9238ZM15.705 9.37875C15.2363 9.37875 15 9.14625 15 8.67375V6.33C15 5.86125 15.2325 5.625 15.705 5.625H18.0488C18.5175 5.625 18.7538 5.8575 18.7538 6.33V8.67375C18.7538 9.1425 18.5213 9.37875 18.0488 9.37875H15.705ZM15.705 15.0037C15.2363 15.0037 15 14.7713 15 14.2988V11.955C15 11.4863 15.2325 11.25 15.705 11.25H18.0488C18.5175 11.25 18.7538 11.4825 18.7538 11.955V14.2988C18.7538 14.7675 18.5213 15.0037 18.0488 15.0037H15.705ZM15.705 20.6287C15.2363 20.6287 15 20.3963 15 19.9238V17.58C15 17.1113 15.2325 16.875 15.705 16.875H18.0488C18.5175 16.875 18.7538 17.1075 18.7538 17.58V19.9238C18.7538 20.3925 18.5213 20.6287 18.0488 20.6287H15.705Z" fill="#666666"/>
</svg>
