<svg width="27" height="30" viewBox="0 0 27 30" fill="none" xmlns="http://www.w3.org/2000/svg">
<path d="M26.25 6.5625V27.1875C26.25 27.9675 25.9762 28.6312 25.4287 29.1787C24.8812 29.7262 24.2175 30 23.4375 30H2.8125C2.0325 30 1.36875 29.7262 0.821251 29.1787C0.273751 28.6312 0 27.9675 0 27.1875V6.5625C0 5.7825 0.273751 5.11875 0.821251 4.57125C1.36875 4.02375 2.0325 3.75 2.8125 3.75H5.625V0.705002C5.625 0.236252 5.8575 0 6.33 0H8.67375C9.1425 0 9.37875 0.232502 9.37875 0.705002V3.75H16.8788V0.705002C16.8788 0.236252 17.1113 0 17.5838 0H19.9275C20.3963 0 20.6325 0.232502 20.6325 0.705002V3.75H23.445C24.225 3.75 24.8887 4.02375 25.4362 4.57125C25.9837 5.11875 26.2575 5.7825 26.2575 6.5625H26.25ZM23.4375 26.835V9.375H2.8125V26.835C2.8125 27.0675 2.92875 27.1875 3.165 27.1875H23.085C23.3175 27.1875 23.4375 27.0712 23.4375 26.835ZM8.67 16.875H6.32625C5.8575 16.875 5.62125 16.6425 5.62125 16.17V13.8262C5.62125 13.3575 5.85375 13.1213 6.32625 13.1213H8.67C9.13875 13.1213 9.375 13.3537 9.375 13.8262V16.17C9.375 16.6387 9.1425 16.875 8.67 16.875ZM9.375 21.795C9.375 22.2637 9.1425 22.5 8.67 22.5H6.32625C5.8575 22.5 5.62125 22.2675 5.62125 21.795V19.4512C5.62125 18.9825 5.85375 18.7463 6.32625 18.7463H8.67C9.13875 18.7463 9.375 18.9787 9.375 19.4512V21.795ZM15 16.17C15 16.6387 14.7675 16.875 14.295 16.875H11.9512C11.4825 16.875 11.2462 16.6425 11.2462 16.17V13.8262C11.2462 13.3575 11.4787 13.1213 11.9512 13.1213H14.295C14.7637 13.1213 15 13.3537 15 13.8262V16.17ZM15 21.795C15 22.2637 14.7675 22.5 14.295 22.5H11.9512C11.4825 22.5 11.2462 22.2675 11.2462 21.795V19.4512C11.2462 18.9825 11.4787 18.7463 11.9512 18.7463H14.295C14.7637 18.7463 15 18.9787 15 19.4512V21.795ZM20.625 16.17C20.625 16.6387 20.3925 16.875 19.92 16.875H17.5762C17.1075 16.875 16.8712 16.6425 16.8712 16.17V13.8262C16.8712 13.3575 17.1037 13.1213 17.5762 13.1213H19.92C20.3887 13.1213 20.625 13.3537 20.625 13.8262V16.17ZM20.625 21.795C20.625 22.2637 20.3925 22.5 19.92 22.5H17.5762C17.1075 22.5 16.8712 22.2675 16.8712 21.795V19.4512C16.8712 18.9825 17.1037 18.7463 17.5762 18.7463H19.92C20.3887 18.7463 20.625 18.9787 20.625 19.4512V21.795Z" fill="#666666"/>
</svg>
