<svg width="33" height="24" viewBox="0 0 33 24" fill="none" xmlns="http://www.w3.org/2000/svg">
<path d="M13.8452 13.1733C15.4918 13.1733 16.8882 13.7496 18.0376 14.8957C19.1869 16.0451 19.76 17.4415 19.76 19.0881V20.58C19.76 21.265 19.5196 21.8479 19.0387 22.3288C18.5579 22.8096 17.975 23.05 17.29 23.05H2.47C1.78498 23.05 1.20207 22.8096 0.72124 22.3288C0.240414 21.8479 0 21.265 0 20.58V19.0881C0 17.4415 0.573043 16.0451 1.72241 14.8957C2.87179 13.7463 4.26816 13.1733 5.91483 13.1733H6.37918C7.51208 13.7233 8.67793 13.9966 9.8767 13.9966C11.0755 13.9966 12.2446 13.7233 13.3742 13.1733H13.8386H13.8452ZM13.9473 9.8273C12.8143 10.9602 11.4608 11.5266 9.88328 11.5266C8.30578 11.5266 6.94893 10.9602 5.81932 9.8273C4.68971 8.6944 4.11996 7.34083 4.11996 5.76332C4.11996 4.18582 4.68641 2.82896 5.81932 1.69935C6.95222 0.569737 8.30578 0 9.88328 0C11.4608 0 12.8176 0.566444 13.9473 1.69935C15.0769 2.83225 15.6466 4.18582 15.6466 5.76332C15.6466 7.34083 15.0802 8.69769 13.9473 9.8273ZM27.1733 13.1733C28.7508 13.1733 30.1076 13.7398 31.2372 14.8727C32.3668 16.0056 32.9366 17.3591 32.9366 18.9366C32.9366 19.6216 32.6962 20.2079 32.2153 20.6854C31.7345 21.1629 31.1516 21.4066 30.4666 21.4066H21.3572C21.3572 21.3737 21.3638 21.321 21.3836 21.2519C21.4001 21.1827 21.4099 21.1333 21.4099 21.0971V19.0914C21.4099 17.1352 20.7249 15.4226 19.3516 13.9472C20.277 13.4335 21.2387 13.1766 22.2333 13.1766H22.4375C23.2279 13.45 23.982 13.5883 24.7033 13.5883C25.4245 13.5883 26.1787 13.45 26.9691 13.1766H27.1733V13.1733ZM28.2008 10.0842C27.2391 11.0458 26.0733 11.5266 24.7033 11.5266C23.3332 11.5266 22.1641 11.0458 21.2058 10.0842C20.2441 9.12252 19.7633 7.95668 19.7633 6.58666C19.7633 5.21663 20.2441 4.0475 21.2058 3.08914C22.1674 2.12749 23.3332 1.64666 24.7033 1.64666C26.0733 1.64666 27.2424 2.12749 28.2008 3.08914C29.1624 4.0508 29.6433 5.21663 29.6433 6.58666C29.6433 7.95668 29.1624 9.12581 28.2008 10.0842Z" fill="#666666"/>
</svg>
