<svg width="30" height="30" viewBox="0 0 30 30" fill="none" xmlns="http://www.w3.org/2000/svg">
<path d="M4.38581 4.38581C7.30839 1.46323 10.8465 0 15 0C19.1535 0 22.6916 1.46323 25.6142 4.38581C28.5368 7.30839 30 10.8465 30 15C30 19.1535 28.5368 22.6916 25.6142 25.6142C22.6916 28.5368 19.1535 30 15 30C10.8465 30 7.30839 28.5368 4.38581 25.6142C1.46323 22.6916 0 19.1535 0 15C0 10.8465 1.45935 7.30839 4.38581 4.38581ZM24.8594 22.0181C26.3497 19.92 27.0968 17.5819 27.0968 15.0039C27.0968 11.6594 25.9161 8.80258 23.5587 6.44516C21.2013 4.08774 18.3484 2.90709 15 2.90709C11.6516 2.90709 8.79871 4.08774 6.44129 6.44516C4.08387 8.80258 2.90323 11.6555 2.90323 15.0039C2.90323 17.5858 3.65032 19.9239 5.14065 22.0181C6.79355 19.92 8.91097 18.8748 11.4929 18.8748C11.6129 18.8748 12.0465 18.9755 12.7935 19.1768C13.5406 19.3781 14.2761 19.4787 15 19.4787C15.7239 19.4787 16.4594 19.3781 17.2065 19.1768C17.9535 18.9755 18.3871 18.8748 18.5071 18.8748C21.089 18.8748 23.2026 19.9239 24.8594 22.0181ZM15 27.0968C17.9845 27.0968 20.6052 26.129 22.8619 24.1935C21.8942 22.6606 20.4813 21.8555 18.6271 21.7742C17.4194 22.1768 16.2077 22.3781 14.9961 22.3781C13.7845 22.3781 12.6155 22.1768 11.3652 21.7742C9.54968 21.8168 8.14065 22.6219 7.13032 24.1935C9.3871 26.129 12.0077 27.0968 14.9923 27.0968H15ZM10.889 7.50194C12.0194 6.37161 13.3897 5.80645 15 5.80645C16.6103 5.80645 17.9845 6.37161 19.111 7.50194C20.2413 8.63226 20.8065 10.0026 20.8065 11.6129C20.8065 13.2232 20.2413 14.5974 19.111 15.7239C17.9806 16.8542 16.6103 17.4194 15 17.4194C13.3897 17.4194 12.0155 16.8542 10.889 15.7239C9.75871 14.5935 9.19355 13.2232 9.19355 11.6129C9.19355 10.0026 9.75871 8.62839 10.889 7.50194ZM12.9445 13.6723C13.5097 14.2374 14.1948 14.52 15 14.52C15.8052 14.52 16.4903 14.2374 17.0555 13.6723C17.6206 13.1071 17.9032 12.4219 17.9032 11.6168C17.9032 10.8116 17.6206 10.1265 17.0555 9.56129C16.4903 8.99613 15.8052 8.71355 15 8.71355C14.1948 8.71355 13.5097 8.99613 12.9445 9.56129C12.3794 10.1265 12.0968 10.8116 12.0968 11.6168C12.0968 12.4219 12.3794 13.111 12.9445 13.6723Z" fill="#666666"/>
</svg>
