<svg width="22" height="22" viewBox="0 0 22 22" fill="none" xmlns="http://www.w3.org/2000/svg">
<rect width="22" height="22" rx="2" fill="#666666"/>
<path d="M18.3732 4.01035C18.3447 4.04176 18.3163 4.07317 18.2867 4.10458C17.2267 5.23435 16.1677 6.36413 15.1077 7.4939C14.3398 8.3127 13.5719 9.13254 12.803 9.95239C12.6838 10.0791 12.5657 10.2068 12.4454 10.3325C12.4201 10.3586 12.4159 10.3764 12.4402 10.4089C13.112 11.2947 13.7818 12.1805 14.4527 13.0663C15.075 13.8893 15.6973 14.7123 16.3196 15.5342C16.9841 16.4138 17.6496 17.2923 18.3142 18.1718C18.5124 18.4346 18.7118 18.6974 18.9101 18.9592C18.9175 18.9686 18.9238 18.9791 18.9365 18.9979C18.9133 18.9979 18.8974 18.9979 18.8827 18.9979C17.3543 18.9979 15.827 18.9979 14.2987 18.999C14.2575 18.999 14.2375 18.9801 14.2153 18.9518C13.7417 18.3205 13.2692 17.6891 12.7946 17.0577C12.1512 16.2012 11.5077 15.3447 10.8643 14.4882C10.5331 14.0464 10.2009 13.6056 9.8718 13.1627C9.84016 13.1208 9.82645 13.126 9.7948 13.1606C9.27691 13.7155 8.75691 14.2684 8.23691 14.8222C7.37517 15.7405 6.51343 16.6588 5.65274 17.5771C5.21923 18.0399 4.78572 18.5016 4.35221 18.9654C4.33322 18.9864 4.31529 19 4.28365 19C3.86491 18.999 3.44722 19 3.02848 19C3.0211 19 3.01477 18.999 3.00738 18.9979C3.00527 18.977 3.02215 18.9686 3.0327 18.9581C4.12965 17.7907 5.22661 16.6242 6.32357 15.4578C7.28762 14.4327 8.25168 13.4066 9.21679 12.3816C9.24633 12.3501 9.24633 12.3323 9.21996 12.2978C8.55334 11.413 7.88884 10.5272 7.22434 9.64141C6.48284 8.65299 5.74134 7.66352 4.99878 6.6751C4.34166 5.79767 3.68454 4.92338 3.02848 4.05013C3.01899 4.03757 3.00949 4.02396 3 4.01139C3.0116 3.99359 3.02742 4.00197 3.04114 4.00197C4.54418 4.00197 6.04616 4.00197 7.54921 4.00092C7.58296 4.00092 7.60511 4.01035 7.6262 4.03862C8.18312 4.77679 8.74109 5.51392 9.29906 6.25209C10.0174 7.20177 10.7357 8.15145 11.454 9.10113C11.5689 9.25296 11.6839 9.40373 11.7968 9.5566C11.8242 9.5943 11.8379 9.59011 11.8664 9.5587C12.3189 9.076 12.7714 8.59436 13.2249 8.11271C13.6595 7.65096 14.094 7.18921 14.5286 6.72746C15.1994 6.01336 15.8703 5.29927 16.5421 4.58518C16.7141 4.40194 16.8881 4.21871 17.06 4.03547C17.079 4.01453 17.098 4.00197 17.1296 4.00197C17.5336 4.00302 17.9376 4.00197 18.3416 4.00197C18.3511 4.00197 18.3637 3.99673 18.3753 4.01139L18.3732 4.01035ZM4.99456 4.9862C5.01249 5.01133 5.02304 5.02599 5.03359 5.0396C5.13485 5.17362 5.23716 5.30765 5.33842 5.44167C6.07675 6.41543 6.81403 7.3892 7.55237 8.36191C8.1346 9.1294 8.71683 9.8948 9.29906 10.6623C9.8602 11.4015 10.4203 12.1428 10.9814 12.8821C11.6681 13.7878 12.3547 14.6935 13.0424 15.5981C13.6215 16.3604 14.1995 17.1237 14.7765 17.887C14.8092 17.931 14.844 17.9456 14.8988 17.9456C15.5686 17.9435 16.2373 17.9446 16.9071 17.9446C16.925 17.9446 16.943 17.9488 16.9609 17.9393C16.9567 17.9163 16.9398 17.9016 16.9271 17.8859C16.3997 17.1865 15.8724 16.4881 15.345 15.7887C14.8113 15.0809 14.2776 14.3731 13.7428 13.6652C13.0593 12.7595 12.3758 11.8538 11.6923 10.9481C10.9677 9.98799 10.2431 9.02679 9.51846 8.06559C8.75691 7.05623 7.99432 6.04687 7.23383 5.03541C7.20535 4.99667 7.17582 4.98515 7.13046 4.98515C6.44065 4.9862 5.75189 4.98515 5.06207 4.98515C5.04414 4.98515 5.02621 4.98515 4.99667 4.98515L4.99456 4.9862Z" fill="white"/>
</svg>
