<?xml version="1.0" standalone="no"?>
<!DOCTYPE svg PUBLIC "-//W3C//DTD SVG 20010904//EN"
 "http://www.w3.org/TR/2001/REC-SVG-20010904/DTD/svg10.dtd">
<svg version="1.0" xmlns="http://www.w3.org/2000/svg"
 width="24.000000pt" height="24.000000pt" viewBox="0 0 24.000000 24.000000"
 preserveAspectRatio="xMidYMid meet">

<g transform="translate(0.000000,24.000000) scale(0.100000,-0.100000)"
fill="#000000" stroke="none">
<path d="M20 213 c0 -5 16 -28 35 -52 19 -24 35 -46 35 -48 0 -3 -16 -25 -36
-49 -42 -51 -26 -59 24 -11 l33 32 27 -33 c19 -22 36 -32 55 -32 15 0 27 3 27
6 0 4 -16 28 -35 54 -19 26 -35 51 -35 55 0 4 14 23 31 43 23 26 28 37 19 40
-8 3 -27 -10 -42 -29 l-29 -34 -25 33 c-18 23 -34 32 -55 32 -16 0 -29 -3 -29
-7z m106 -88 c31 -42 55 -78 52 -81 -6 -5 -118 137 -118 149 0 16 13 3 66 -68z"/>
</g>
</svg>
