<?xml version="1.0" standalone="no"?>
<!DOCTYPE svg PUBLIC "-//W3C//DTD SVG 20010904//EN"
 "http://www.w3.org/TR/2001/REC-SVG-20010904/DTD/svg10.dtd">
<svg version="1.0" xmlns="http://www.w3.org/2000/svg"
 width="32.000000pt" height="32.000000pt" viewBox="0 0 32.000000 32.000000"
 preserveAspectRatio="xMidYMid meet">

<g transform="translate(0.000000,32.000000) scale(0.100000,-0.100000)"
fill="#000000" stroke="none">
<path d="M0 160 l0 -160 160 0 160 0 0 160 0 160 -160 0 -160 0 0 -160z m136
80 c15 -22 30 -40 35 -40 4 0 24 19 43 42 20 23 39 39 42 35 4 -4 -12 -27 -35
-52 l-42 -45 39 -58 c58 -87 57 -82 18 -82 -29 0 -38 6 -58 37 -13 20 -26 41
-30 46 -5 8 -58 -42 -80 -77 -4 -6 -10 -7 -14 -3 -4 4 6 22 22 40 61 65 60 60
9 132 l-47 65 36 0 c31 0 40 -6 62 -40z"/>
<path d="M141 160 c39 -55 77 -100 85 -100 18 0 19 -3 -61 113 -36 51 -67 87
-77 87 -13 0 1 -26 53 -100z"/>
</g>
</svg>
